<svg xmlns="http://www.w3.org/2000/svg" xmlns:xlink="http://www.w3.org/1999/xlink" width="221.522" height="40.089" viewBox="0 0 221.522 40.089">
  <defs>
    <linearGradient id="linear-gradient" y1="0.5" x2="1" y2="0.5" gradientUnits="objectBoundingBox">
      <stop offset="0" stop-color="#22b473"/>
      <stop offset="1" stop-color="#2db24a"/>
    </linearGradient>
    <linearGradient id="linear-gradient-4" x1="0" y1="0.5" x2="1" y2="0.5" xlink:href="#linear-gradient"/>
    <linearGradient id="linear-gradient-6" y1="0.5" x2="1" y2="0.5" gradientUnits="objectBoundingBox">
      <stop offset="0" stop-color="#1b805e"/>
      <stop offset="1" stop-color="#19985d"/>
    </linearGradient>
    <linearGradient id="linear-gradient-7" x1="0" y1="0.5" x2="1" y2="0.5" xlink:href="#linear-gradient"/>
    <linearGradient id="linear-gradient-8" y1="0.5" x2="1" y2="0.5" gradientUnits="objectBoundingBox">
      <stop offset="0" stop-color="#ee395f"/>
      <stop offset="1" stop-color="#f69220"/>
    </linearGradient>
  </defs>
  <g id="Grupo_3" data-name="Grupo 3" transform="translate(-901.781 -529.464)">
    <path id="Caminho_1" data-name="Caminho 1" d="M1006.275,569.121V529.464h4.819v16.047a14.66,14.66,0,0,1,3.877-2.975,10.371,10.371,0,0,1,4.9-1.117,9.827,9.827,0,0,1,3.944.74,7.627,7.627,0,0,1,2.854,2.1,9.3,9.3,0,0,1,1.737,3.272,14.273,14.273,0,0,1,.592,4.227v17.364h-4.819V551.757a7.343,7.343,0,0,0-1.414-4.806,5.251,5.251,0,0,0-4.294-1.71,8.1,8.1,0,0,0-4,1.024,12.683,12.683,0,0,0-3.379,2.772v20.084Z" transform="translate(94.304)" fill="url(#linear-gradient)"/>
    <path id="Caminho_2" data-name="Caminho 2" d="M1010.849,540.673a1.06,1.06,0,0,1-1,.594,1.878,1.878,0,0,1-.917-.3q-.511-.3-1.25-.66a12.016,12.016,0,0,0-1.763-.673,8.465,8.465,0,0,0-2.424-.308,7.169,7.169,0,0,0-2.18.308,5.292,5.292,0,0,0-1.657.848,3.759,3.759,0,0,0-1.048,1.252,3.353,3.353,0,0,0-.365,1.549,2.582,2.582,0,0,0,.607,1.75,5.261,5.261,0,0,0,1.6,1.212,14.069,14.069,0,0,0,2.26.9q1.267.391,2.6.833t2.6.984a9.559,9.559,0,0,1,2.262,1.345,6.191,6.191,0,0,1,1.6,1.98,6.056,6.056,0,0,1,.605,2.812,8.9,8.9,0,0,1-.673,3.487,7.62,7.62,0,0,1-1.992,2.774,9.618,9.618,0,0,1-3.23,1.844,13.274,13.274,0,0,1-4.416.673,13.788,13.788,0,0,1-5.169-.928,13.081,13.081,0,0,1-3.93-2.384l1.13-1.83a1.623,1.623,0,0,1,.512-.538,1.384,1.384,0,0,1,.753-.188,1.808,1.808,0,0,1,1.024.377q.539.377,1.305.835a9.982,9.982,0,0,0,1.872.833,8.539,8.539,0,0,0,2.745.377,7.458,7.458,0,0,0,2.45-.363,5.129,5.129,0,0,0,1.75-.982,3.9,3.9,0,0,0,1.037-1.427,4.431,4.431,0,0,0,.337-1.724,2.849,2.849,0,0,0-.607-1.87,5.128,5.128,0,0,0-1.6-1.267,13.212,13.212,0,0,0-2.273-.915q-1.281-.388-2.612-.82t-2.612-.984a9.134,9.134,0,0,1-2.275-1.387,6.294,6.294,0,0,1-1.6-2.058,6.665,6.665,0,0,1-.6-2.975,7.243,7.243,0,0,1,.647-3,7.357,7.357,0,0,1,1.883-2.53,9.306,9.306,0,0,1,3.042-1.737,12.2,12.2,0,0,1,4.121-.645,13.044,13.044,0,0,1,4.832.847,11.477,11.477,0,0,1,3.7,2.329Z" transform="translate(82.299 5.671)" fill="url(#linear-gradient)"/>
    <path id="Caminho_3" data-name="Caminho 3" d="M990.99,535.748a12.265,12.265,0,0,1,4.536.82,10.282,10.282,0,0,1,3.609,2.37,10.847,10.847,0,0,1,2.382,3.822,14.555,14.555,0,0,1,.862,5.182,3.124,3.124,0,0,1-.244,1.509,1,1,0,0,1-.915.377H982.994a14.975,14.975,0,0,0,.7,4.5,9.154,9.154,0,0,0,1.777,3.191,7.129,7.129,0,0,0,2.692,1.912,9.228,9.228,0,0,0,3.5.632,10.287,10.287,0,0,0,3.11-.417,14.758,14.758,0,0,0,2.249-.9,17.166,17.166,0,0,0,1.573-.9,2.092,2.092,0,0,1,1.092-.417,1.058,1.058,0,0,1,.915.457l1.345,1.75a9.093,9.093,0,0,1-2.127,1.87,13.105,13.105,0,0,1-2.65,1.307,16.835,16.835,0,0,1-2.922.767,17.759,17.759,0,0,1-2.989.255,13.86,13.86,0,0,1-5.209-.955,11.384,11.384,0,0,1-4.119-2.8,12.8,12.8,0,0,1-2.705-4.562,18.534,18.534,0,0,1-.97-6.246,15.876,15.876,0,0,1,.875-5.331,12.6,12.6,0,0,1,2.517-4.3,11.644,11.644,0,0,1,4.012-2.854A13.174,13.174,0,0,1,990.99,535.748Zm.107,3.525a7.353,7.353,0,0,0-5.464,2.007,9.441,9.441,0,0,0-2.479,5.559h14.915a9.448,9.448,0,0,0-.47-3.055,6.867,6.867,0,0,0-1.374-2.4,6.1,6.1,0,0,0-2.194-1.56A7.388,7.388,0,0,0,991.1,539.273Z" transform="translate(69.017 5.671)" fill="url(#linear-gradient)"/>
    <path id="Caminho_4" data-name="Caminho 4" d="M969.353,563.476V536.2H972.1a1.512,1.512,0,0,1,1.077.3,1.8,1.8,0,0,1,.4,1.022l.3,4.147a12.227,12.227,0,0,1,3.19-4.376,6.991,6.991,0,0,1,4.617-1.575,7.174,7.174,0,0,1,1.657.188,4.414,4.414,0,0,1,1.412.594l-.35,3.581a.768.768,0,0,1-.807.672,5.662,5.662,0,0,1-1.105-.16,7.524,7.524,0,0,0-1.64-.162,6.435,6.435,0,0,0-2.315.39,5.541,5.541,0,0,0-1.819,1.13,7.746,7.746,0,0,0-1.414,1.819,15.9,15.9,0,0,0-1.13,2.475v17.231Z" transform="translate(60.983 5.645)" fill="url(#linear-gradient-4)"/>
    <path id="Caminho_5" data-name="Caminho 5" d="M962.412,568.879V545.7l-3.017-.35a2.4,2.4,0,0,1-.928-.417.98.98,0,0,1-.363-.822v-1.965h4.309v-2.639a12.153,12.153,0,0,1,.658-4.159,8.419,8.419,0,0,1,1.885-3.071,7.994,7.994,0,0,1,2.947-1.9,10.955,10.955,0,0,1,3.877-.647,10.1,10.1,0,0,1,3.365.538l-.106,2.4a.7.7,0,0,1-.715.7c-.439.034-1.025.053-1.764.053a7.368,7.368,0,0,0-2.247.323,4.24,4.24,0,0,0-1.737,1.05,4.739,4.739,0,0,0-1.117,1.91,9.489,9.489,0,0,0-.39,2.935v2.5h7.861v3.474h-7.7v23.26Z" transform="translate(50.83 0.243)" fill="url(#linear-gradient)"/>
    <g id="Grupo_1" data-name="Grupo 1" transform="translate(986.539 534.92)">
      <path id="Caminho_6" data-name="Caminho 6" d="M946.332,533.692a8.814,8.814,0,0,0,6.408,3.761,9.3,9.3,0,0,1,1.276-3.7,6.006,6.006,0,0,0-7.684-.059Z" transform="translate(-946.332 -532.332)" fill="url(#linear-gradient-6)"/>
    </g>
    <path id="Caminho_7" data-name="Caminho 7" d="M959.347,530.709c-.12,0-.24-.008-.36-.008a9.357,9.357,0,0,0-9.288,8.224c.278.025.559.04.845.04A8.825,8.825,0,0,0,959.347,530.709Z" transform="translate(43.246 1.116)" fill="url(#linear-gradient-7)"/>
    <g id="Grupo_2" data-name="Grupo 2" transform="translate(980.264 541.501)">
      <path id="Caminho_8" data-name="Caminho 8" d="M957,535.791a13.969,13.969,0,1,0,13.968,13.97A13.97,13.97,0,0,0,957,535.791Zm0,22.883a8.914,8.914,0,1,1,8.913-8.913A8.915,8.915,0,0,1,957,558.674Z" transform="translate(-943.034 -535.791)" fill="url(#linear-gradient-8)"/>
    </g>
    <path id="Caminho_9" data-name="Caminho 9" d="M949.5,569.121a1.219,1.219,0,0,1-1.292-.995l-.432-3.312a14.339,14.339,0,0,1-4,3.406,10.234,10.234,0,0,1-5.158,1.278,9.837,9.837,0,0,1-4.252-.9,8.849,8.849,0,0,1-3.259-2.652,12.613,12.613,0,0,1-2.072-4.362,22.433,22.433,0,0,1-.727-6,18.813,18.813,0,0,1,.807-5.612,13.8,13.8,0,0,1,2.315-4.511,10.775,10.775,0,0,1,3.7-3,10.952,10.952,0,0,1,4.941-1.09,9.968,9.968,0,0,1,4.294.849,10.244,10.244,0,0,1,3.19,2.382v-15.13h4.792v39.657Zm-9.317-3.5a7.784,7.784,0,0,0,4.134-1.077,11.871,11.871,0,0,0,3.244-3.042V548.337a7.971,7.971,0,0,0-2.909-2.5,8.21,8.21,0,0,0-3.5-.727,6.874,6.874,0,0,0-5.843,2.721q-2.046,2.719-2.047,7.752a19.763,19.763,0,0,0,.458,4.564,8.76,8.76,0,0,0,1.347,3.124,5.3,5.3,0,0,0,2.18,1.79A7.258,7.258,0,0,0,940.186,565.623Z" transform="translate(23.947)" fill="url(#linear-gradient)"/>
    <path id="Caminho_10" data-name="Caminho 10" d="M917.964,535.974v17.393a7.29,7.29,0,0,0,1.414,4.792,5.311,5.311,0,0,0,4.322,1.7,8.254,8.254,0,0,0,3.957-1,12.289,12.289,0,0,0,3.419-2.774V535.974h4.792v27.272h-2.854a1.22,1.22,0,0,1-1.292-.995l-.377-2.936a15,15,0,0,1-3.986,3.164,10.437,10.437,0,0,1-5.061,1.2,9.875,9.875,0,0,1-3.946-.74,7.831,7.831,0,0,1-2.867-2.087,8.827,8.827,0,0,1-1.735-3.257,14.539,14.539,0,0,1-.58-4.227V535.974Z" transform="translate(10.28 5.875)" fill="url(#linear-gradient)"/>
    <path id="Caminho_11" data-name="Caminho 11" d="M912.792,567.88a6.575,6.575,0,0,1-4.967-1.8,7.2,7.2,0,0,1-1.737-5.2V544.188H902.8a1.07,1.07,0,0,1-.727-.257,1,1,0,0,1-.295-.793v-1.912l4.469-.565,1.1-8.428a1.175,1.175,0,0,1,.363-.66,1.066,1.066,0,0,1,.74-.255h2.424v9.4h7.888v3.474h-7.888v16.369a3.481,3.481,0,0,0,.833,2.557,2.918,2.918,0,0,0,2.156.835,3.831,3.831,0,0,0,1.305-.2,5.533,5.533,0,0,0,.955-.445c.27-.162.5-.31.689-.443a.888.888,0,0,1,.5-.2.826.826,0,0,1,.673.457l1.4,2.289a8.919,8.919,0,0,1-2.989,1.817A10.15,10.15,0,0,1,912.792,567.88Z" transform="translate(0 1.673)" fill="url(#linear-gradient)"/>
  </g>
</svg>
