<svg xmlns="http://www.w3.org/2000/svg" xmlns:xlink="http://www.w3.org/1999/xlink" width="27.938" height="37.622" viewBox="0 0 27.938 37.622">
  <defs>
    <linearGradient id="linear-gradient" y1="0.5" x2="1" y2="0.5" gradientUnits="objectBoundingBox">
      <stop offset="0" stop-color="#1b805e"/>
      <stop offset="1" stop-color="#19985d"/>
    </linearGradient>
    <linearGradient id="linear-gradient-2" y1="0.5" x2="1" y2="0.5" gradientUnits="objectBoundingBox">
      <stop offset="0" stop-color="#22b473"/>
      <stop offset="1" stop-color="#2db24a"/>
    </linearGradient>
    <linearGradient id="linear-gradient-3" y1="0.5" x2="1" y2="0.5" gradientUnits="objectBoundingBox">
      <stop offset="0" stop-color="#ee395f"/>
      <stop offset="1" stop-color="#f69220"/>
    </linearGradient>
  </defs>
  <g id="Grupo_3" data-name="Grupo 3" transform="translate(-980.264 -531.817)">
    <g id="Grupo_1" data-name="Grupo 1" transform="translate(986.539 534.92)">
      <path id="Caminho_6" data-name="Caminho 6" d="M946.332,533.692a8.814,8.814,0,0,0,6.408,3.761,9.3,9.3,0,0,1,1.276-3.7,6.006,6.006,0,0,0-7.684-.059Z" transform="translate(-946.332 -532.332)" fill="url(#linear-gradient)"/>
    </g>
    <path id="Caminho_7" data-name="Caminho 7" d="M959.347,530.709c-.12,0-.24-.008-.36-.008a9.357,9.357,0,0,0-9.288,8.224c.278.025.559.04.845.04A8.825,8.825,0,0,0,959.347,530.709Z" transform="translate(43.246 1.116)" fill="url(#linear-gradient-2)"/>
    <g id="Grupo_2" data-name="Grupo 2" transform="translate(980.264 541.501)">
      <path id="Caminho_8" data-name="Caminho 8" d="M957,535.791a13.969,13.969,0,1,0,13.968,13.97A13.97,13.97,0,0,0,957,535.791Zm0,22.883a8.914,8.914,0,1,1,8.913-8.913A8.915,8.915,0,0,1,957,558.674Z" transform="translate(-943.034 -535.791)" fill="url(#linear-gradient-3)"/>
    </g>
  </g>
</svg>
